<svg xmlns="http://www.w3.org/2000/svg" xmlns:xlink="http://www.w3.org/1999/xlink" width="116" zoomAndPan="magnify" viewBox="0 0 87 37.5" height="50" preserveAspectRatio="xMidYMid meet" version="1.0"><defs><g/></defs><g fill="#ffffff" fill-opacity="1"><g transform="translate(4.285008, 23.104132)"><g><path d="M 0.53125 -4.453125 C 0.53125 -5.328125 0.695312 -6.101562 1.03125 -6.78125 C 1.363281 -7.457031 1.84375 -7.984375 2.46875 -8.359375 C 3.101562 -8.734375 3.835938 -8.921875 4.671875 -8.921875 C 5.847656 -8.921875 6.8125 -8.554688 7.5625 -7.828125 C 8.3125 -7.109375 8.726562 -6.128906 8.8125 -4.890625 L 8.828125 -4.296875 C 8.828125 -2.953125 8.453125 -1.875 7.703125 -1.0625 C 6.953125 -0.25 5.945312 0.15625 4.6875 0.15625 C 3.425781 0.15625 2.414062 -0.242188 1.65625 -1.046875 C 0.90625 -1.859375 0.53125 -2.960938 0.53125 -4.359375 Z M 2.875 -4.296875 C 2.875 -3.460938 3.03125 -2.820312 3.34375 -2.375 C 3.65625 -1.9375 4.101562 -1.71875 4.6875 -1.71875 C 5.25 -1.71875 5.6875 -1.9375 6 -2.375 C 6.320312 -2.8125 6.484375 -3.503906 6.484375 -4.453125 C 6.484375 -5.273438 6.320312 -5.910156 6 -6.359375 C 5.6875 -6.804688 5.242188 -7.03125 4.671875 -7.03125 C 4.097656 -7.03125 3.65625 -6.804688 3.34375 -6.359375 C 3.03125 -5.910156 2.875 -5.222656 2.875 -4.296875 Z M 2.875 -4.296875 "/></g></g></g><g fill="#ffffff" fill-opacity="1"><g transform="translate(13.654302, 23.104132)"><g><path d="M 3.375 0 L 1.015625 0 L 1.015625 -12.4375 L 3.375 -12.4375 Z M 3.375 0 "/></g></g></g><g fill="#ffffff" fill-opacity="1"><g transform="translate(18.047682, 23.104132)"><g><path d="M 0.53125 -4.4375 C 0.53125 -5.800781 0.835938 -6.890625 1.453125 -7.703125 C 2.066406 -8.515625 2.90625 -8.921875 3.96875 -8.921875 C 4.820312 -8.921875 5.523438 -8.601562 6.078125 -7.96875 L 6.078125 -12.4375 L 8.421875 -12.4375 L 8.421875 0 L 6.3125 0 L 6.203125 -0.9375 C 5.617188 -0.207031 4.867188 0.15625 3.953125 0.15625 C 2.921875 0.15625 2.09375 -0.25 1.46875 -1.0625 C 0.84375 -1.875 0.53125 -3 0.53125 -4.4375 Z M 2.875 -4.28125 C 2.875 -3.457031 3.015625 -2.828125 3.296875 -2.390625 C 3.585938 -1.953125 4.003906 -1.734375 4.546875 -1.734375 C 5.273438 -1.734375 5.785156 -2.035156 6.078125 -2.640625 L 6.078125 -6.109375 C 5.785156 -6.710938 5.28125 -7.015625 4.5625 -7.015625 C 3.4375 -7.015625 2.875 -6.101562 2.875 -4.28125 Z M 2.875 -4.28125 "/></g></g></g><g fill="#ffffff" fill-opacity="1"><g transform="translate(27.385068, 23.104132)"><g><path d="M 8.53125 -4.28125 C 8.53125 -2.945312 8.222656 -1.875 7.609375 -1.0625 C 7.003906 -0.25 6.179688 0.15625 5.140625 0.15625 C 4.078125 0.15625 3.238281 -0.175781 2.625 -0.84375 L 2.625 3.375 L 1.140625 3.375 L 1.140625 -8.765625 L 2.5 -8.765625 L 2.578125 -7.78125 C 3.179688 -8.539062 4.023438 -8.921875 5.109375 -8.921875 C 6.160156 -8.921875 6.992188 -8.523438 7.609375 -7.734375 C 8.222656 -6.941406 8.53125 -5.835938 8.53125 -4.421875 Z M 7.03125 -4.453125 C 7.03125 -5.441406 6.816406 -6.222656 6.390625 -6.796875 C 5.972656 -7.367188 5.398438 -7.65625 4.671875 -7.65625 C 3.765625 -7.65625 3.082031 -7.25 2.625 -6.4375 L 2.625 -2.265625 C 3.070312 -1.460938 3.757812 -1.0625 4.6875 -1.0625 C 5.40625 -1.0625 5.972656 -1.34375 6.390625 -1.90625 C 6.816406 -2.476562 7.03125 -3.328125 7.03125 -4.453125 Z M 7.03125 -4.453125 "/></g></g></g><g fill="#ffffff" fill-opacity="1"><g transform="translate(36.68155, 23.104132)"><g><path d="M 5.359375 -7.421875 C 5.140625 -7.453125 4.894531 -7.46875 4.625 -7.46875 C 3.644531 -7.46875 2.976562 -7.050781 2.625 -6.21875 L 2.625 0 L 1.140625 0 L 1.140625 -8.765625 L 2.59375 -8.765625 L 2.609375 -7.75 C 3.097656 -8.53125 3.796875 -8.921875 4.703125 -8.921875 C 4.992188 -8.921875 5.210938 -8.882812 5.359375 -8.8125 Z M 5.359375 -7.421875 "/></g></g></g><g fill="#ffffff" fill-opacity="1"><g transform="translate(42.126669, 23.104132)"><g><path d="M 0.734375 -4.453125 C 0.734375 -5.316406 0.898438 -6.085938 1.234375 -6.765625 C 1.578125 -7.453125 2.046875 -7.984375 2.640625 -8.359375 C 3.242188 -8.734375 3.9375 -8.921875 4.71875 -8.921875 C 5.90625 -8.921875 6.863281 -8.503906 7.59375 -7.671875 C 8.332031 -6.847656 8.703125 -5.753906 8.703125 -4.390625 L 8.703125 -4.28125 C 8.703125 -3.425781 8.539062 -2.660156 8.21875 -1.984375 C 7.894531 -1.304688 7.425781 -0.78125 6.8125 -0.40625 C 6.207031 -0.03125 5.515625 0.15625 4.734375 0.15625 C 3.546875 0.15625 2.582031 -0.253906 1.84375 -1.078125 C 1.101562 -1.898438 0.734375 -2.992188 0.734375 -4.359375 Z M 2.25 -4.28125 C 2.25 -3.3125 2.472656 -2.53125 2.921875 -1.9375 C 3.367188 -1.351562 3.972656 -1.0625 4.734375 -1.0625 C 5.492188 -1.0625 6.097656 -1.359375 6.546875 -1.953125 C 6.992188 -2.546875 7.21875 -3.378906 7.21875 -4.453125 C 7.21875 -5.421875 6.988281 -6.203125 6.53125 -6.796875 C 6.070312 -7.390625 5.46875 -7.6875 4.71875 -7.6875 C 3.976562 -7.6875 3.378906 -7.390625 2.921875 -6.796875 C 2.472656 -6.210938 2.25 -5.375 2.25 -4.28125 Z M 2.25 -4.28125 "/></g></g></g><g fill="#ffffff" fill-opacity="1"><g transform="translate(51.576872, 23.104132)"><g><path d="M 1.875 0 L 1.875 -7.59375 L 0.484375 -7.59375 L 0.484375 -8.765625 L 1.875 -8.765625 L 1.875 -9.65625 C 1.875 -10.59375 2.125 -11.316406 2.625 -11.828125 C 3.125 -12.347656 3.832031 -12.609375 4.75 -12.609375 C 5.09375 -12.609375 5.4375 -12.5625 5.78125 -12.46875 L 5.703125 -11.25 C 5.441406 -11.300781 5.171875 -11.328125 4.890625 -11.328125 C 4.398438 -11.328125 4.023438 -11.179688 3.765625 -10.890625 C 3.503906 -10.609375 3.375 -10.207031 3.375 -9.6875 L 3.375 -8.765625 L 5.234375 -8.765625 L 5.234375 -7.59375 L 3.375 -7.59375 L 3.375 0 Z M 1.875 0 "/></g></g></g><g fill="#ffffff" fill-opacity="1"><g transform="translate(57.329528, 23.104132)"><g><path d="M 2.765625 0 L 1.265625 0 L 1.265625 -8.765625 L 2.765625 -8.765625 Z M 1.140625 -11.078125 C 1.140625 -11.328125 1.210938 -11.535156 1.359375 -11.703125 C 1.515625 -11.867188 1.734375 -11.953125 2.015625 -11.953125 C 2.304688 -11.953125 2.53125 -11.867188 2.6875 -11.703125 C 2.84375 -11.535156 2.921875 -11.328125 2.921875 -11.078125 C 2.921875 -10.835938 2.84375 -10.632812 2.6875 -10.46875 C 2.53125 -10.3125 2.304688 -10.234375 2.015625 -10.234375 C 1.734375 -10.234375 1.515625 -10.3125 1.359375 -10.46875 C 1.210938 -10.632812 1.140625 -10.835938 1.140625 -11.078125 Z M 1.140625 -11.078125 "/></g></g></g><g fill="#ffffff" fill-opacity="1"><g transform="translate(61.350725, 23.104132)"><g><path d="M 2.765625 0 L 1.265625 0 L 1.265625 -12.4375 L 2.765625 -12.4375 Z M 2.765625 0 "/></g></g></g><g fill="#ffffff" fill-opacity="1"><g transform="translate(65.371922, 23.104132)"><g><path d="M 4.765625 0.15625 C 3.578125 0.15625 2.609375 -0.226562 1.859375 -1 C 1.117188 -1.78125 0.75 -2.828125 0.75 -4.140625 L 0.75 -4.40625 C 0.75 -5.28125 0.914062 -6.054688 1.25 -6.734375 C 1.582031 -7.421875 2.046875 -7.957031 2.640625 -8.34375 C 3.234375 -8.726562 3.878906 -8.921875 4.578125 -8.921875 C 5.722656 -8.921875 6.609375 -8.546875 7.234375 -7.796875 C 7.867188 -7.046875 8.1875 -5.972656 8.1875 -4.578125 L 8.1875 -3.953125 L 2.25 -3.953125 C 2.269531 -3.085938 2.519531 -2.390625 3 -1.859375 C 3.488281 -1.328125 4.101562 -1.0625 4.84375 -1.0625 C 5.375 -1.0625 5.820312 -1.164062 6.1875 -1.375 C 6.5625 -1.59375 6.882812 -1.882812 7.15625 -2.25 L 8.078125 -1.53125 C 7.335938 -0.40625 6.234375 0.15625 4.765625 0.15625 Z M 4.578125 -7.6875 C 3.972656 -7.6875 3.460938 -7.46875 3.046875 -7.03125 C 2.640625 -6.59375 2.390625 -5.976562 2.296875 -5.1875 L 6.6875 -5.1875 L 6.6875 -5.296875 C 6.644531 -6.054688 6.4375 -6.644531 6.0625 -7.0625 C 5.695312 -7.476562 5.203125 -7.6875 4.578125 -7.6875 Z M 4.578125 -7.6875 "/></g></g></g><g fill="#ffffff" fill-opacity="1"><g transform="translate(74.150584, 23.104132)"><g><path d="M 6.234375 -2.328125 C 6.234375 -2.734375 6.078125 -3.046875 5.765625 -3.265625 C 5.460938 -3.492188 4.929688 -3.6875 4.171875 -3.84375 C 3.421875 -4.007812 2.820312 -4.203125 2.375 -4.421875 C 1.925781 -4.648438 1.59375 -4.921875 1.375 -5.234375 C 1.164062 -5.546875 1.0625 -5.921875 1.0625 -6.359375 C 1.0625 -7.078125 1.363281 -7.679688 1.96875 -8.171875 C 2.582031 -8.671875 3.363281 -8.921875 4.3125 -8.921875 C 5.300781 -8.921875 6.101562 -8.660156 6.71875 -8.140625 C 7.34375 -7.628906 7.65625 -6.976562 7.65625 -6.1875 L 6.140625 -6.1875 C 6.140625 -6.59375 5.960938 -6.941406 5.609375 -7.234375 C 5.265625 -7.535156 4.832031 -7.6875 4.3125 -7.6875 C 3.757812 -7.6875 3.328125 -7.566406 3.015625 -7.328125 C 2.710938 -7.097656 2.5625 -6.789062 2.5625 -6.40625 C 2.5625 -6.039062 2.703125 -5.765625 2.984375 -5.578125 C 3.273438 -5.398438 3.796875 -5.226562 4.546875 -5.0625 C 5.296875 -4.894531 5.898438 -4.691406 6.359375 -4.453125 C 6.828125 -4.222656 7.171875 -3.941406 7.390625 -3.609375 C 7.617188 -3.285156 7.734375 -2.890625 7.734375 -2.421875 C 7.734375 -1.640625 7.421875 -1.015625 6.796875 -0.546875 C 6.171875 -0.078125 5.359375 0.15625 4.359375 0.15625 C 3.648438 0.15625 3.023438 0.0351562 2.484375 -0.203125 C 1.953125 -0.453125 1.53125 -0.800781 1.21875 -1.25 C 0.914062 -1.695312 0.765625 -2.179688 0.765625 -2.703125 L 2.265625 -2.703125 C 2.296875 -2.191406 2.5 -1.789062 2.875 -1.5 C 3.25 -1.207031 3.742188 -1.0625 4.359375 -1.0625 C 4.921875 -1.0625 5.375 -1.175781 5.71875 -1.40625 C 6.0625 -1.632812 6.234375 -1.941406 6.234375 -2.328125 Z M 6.234375 -2.328125 "/></g></g></g></svg>